<svg viewBox="0 0 926 380" fill="none" xmlns="http://www.w3.org/2000/svg" preserveAspectRatio="xMidYMid meet" aria-label="wer1">
  <g id="WeR1 Wordmark">
    <g id="Group">
      <path id="Vector" d="M885.395 310.104H922.526C923.477 310.104 924.232 309.336 924.232 308.41L923.647 35.7789C924.842 14.1727 916.592 2.52259 899.397 0.377809C888.77 -0.96268 882.141 1.04805 871.003 9.90746C870.966 9.93184 870.942 9.96839 870.905 9.99277L862.996 17.2314C839.306 38.6305 829.192 50.1221 799.323 56.5321C798.373 56.7393 797.788 57.702 798.044 58.6525L810.047 86.6078C810.291 87.4608 811.144 88.0092 812.009 87.8264C838.892 82.6716 849.604 75.7133 868.602 60.8826C871.466 58.7622 874.256 56.5077 876.243 54.5092C876.34 54.4117 876.426 54.3264 876.511 54.2289C878.01 52.8762 879.472 51.4992 880.886 50.0856C880.983 49.9881 881.093 49.9028 881.215 49.8418C882.312 49.2203 883.713 49.9028 883.786 51.1579C883.81 51.4992 883.786 51.8891 883.75 52.2669V52.4497L883.664 308.385C883.664 309.336 884.432 310.079 885.37 310.079H885.395V310.104Z" fill="#1f2937"></path>
      <path id="Vector_2" d="M560.107 202.913C560.107 147.015 522.366 103.339 461.654 103.339C400.942 103.339 359.923 150.269 359.923 207.8C359.923 269.414 405.451 313.479 466.565 313.479C505.403 313.479 537.453 295.614 555.257 262.236C555.659 261.468 555.354 260.518 554.586 260.116L526.131 245.59C525.4 245.2 524.511 245.492 524.109 246.211C512.044 267.366 490.28 277.542 466.175 277.542C430.713 277.542 404.756 254.303 399.565 220.985C399.419 220.059 400.174 219.206 401.1 219.206H558.535C559.388 219.206 560.07 218.524 560.07 217.671V202.901H560.095L560.107 202.913ZM461.252 139.654C489.475 139.654 510.606 155.277 517.321 179.491C517.589 180.466 516.833 181.429 515.822 181.429H405.756C404.708 181.429 403.928 180.381 404.281 179.382C412.434 156.362 432.626 139.654 461.264 139.654H461.252Z" fill="#1f2937"></path>
      <path id="Vector_3" d="M715.86 243.921C710.303 235.927 703.515 229.675 695.497 225.203C687.49 220.73 677.108 219.524 664.349 219.524H632.043C631.166 219.524 630.459 220.206 630.459 221.084L630.118 312.03C630.093 312.883 629.411 313.59 628.533 313.59H590.963C590.086 313.59 589.379 312.883 589.379 312.018V105.278C589.379 104.412 590.086 103.706 590.963 103.706H629.252C630.13 103.706 630.836 104.412 630.836 105.278L630.593 179.858C630.593 180.723 631.3 181.43 632.177 181.43H683.883C695.57 181.43 706.014 179.529 715.251 175.726C724.476 171.924 731.653 166.294 736.82 158.836C741.975 151.366 744.571 142.775 744.571 131.368C744.571 119.962 741.914 110.81 736.625 103.901C731.337 96.9788 724.135 91.8484 715.044 88.4484C705.94 85.0728 695.619 83.3668 684.48 83.3668L610.144 83.2083L603.478 83.1718C560.107 83.1718 528.606 61.1268 512.471 29.4669C512.008 28.553 512.532 27.4684 513.532 27.2247L550.541 18.4262C551.187 18.28 551.833 18.5481 552.199 19.0964C562.581 34.6705 579.569 45.2725 602.284 45.2725L620.612 45.175H684.103C703.345 45.175 721.027 48.1485 736.638 54.1197C752.248 60.091 764.605 69.1698 773.708 81.3682C782.811 93.5667 787.357 109.019 787.357 127.737C787.357 142.933 783.774 156.362 776.572 168.013C769.37 179.663 759.402 188.754 746.643 195.261C740.233 198.539 733.213 200.989 725.609 202.609C726.547 203.048 727.449 203.499 728.327 204.011C738.1 209.568 746.521 217.72 753.577 228.444H753.54C757.842 234.976 759.792 238.047 763.886 244.92L767.371 250.501C773.16 259.58 776.328 264.394 784.517 275.288L785.249 276.19L785.675 276.738L786.199 277.323C822.88 319.926 850.969 340.68 924.391 339.473C925.269 339.449 926 340.156 926 341.033V377.945C926 378.798 925.293 379.517 924.44 379.517C839.295 381.138 789.794 350.27 742.377 282.076C742.353 282.039 742.316 282.015 742.292 281.978L715.848 243.945L715.86 243.921Z" fill="#1f2937"></path>
      <path id="Vector_4" d="M178.25 149.111L178.104 148.611C177.288 145.114 176.069 143.554 174.058 143.554C172.401 143.554 170.756 145.211 169.915 148.916L122.035 278.176C113.48 301.098 100.575 313.467 80.7848 313.467C59.3126 313.467 43.2267 301.159 37.8526 276.859L0.038601 105.545C-0.180752 104.57 0.56261 103.644 1.56188 103.644H40.3751C41.1063 103.644 41.7522 104.156 41.8984 104.875L74.9963 264.064C76.2393 270.254 78.3231 273.13 81.6012 273.13C84.8793 273.13 85.9639 271.01 88.5961 264.186C88.6205 264.1 88.6571 263.966 88.6571 263.966L135.647 140.239C146.176 114.222 154.853 103.851 174.253 103.851C193.654 103.851 203.452 112.918 212.823 139.837L259.058 264.027C259.058 264.027 259.094 264.088 259.094 264.125C260.739 269.852 262.384 272.716 266.089 272.716C269.794 272.716 271.439 269.84 272.28 264.076L307.498 104.887C307.644 103.961 308.436 103.291 309.375 103.291H348.931C350.113 103.291 351.015 104.363 350.796 105.533L309.862 274.373C304.89 298.673 290.011 313.467 268.173 313.467C246.335 313.467 233.15 300.111 224.863 275.69L178.263 149.099L178.25 149.111Z" fill="#1f2937"></path>
    </g>
  </g>
</svg>
